<svg xmlns="http://www.w3.org/2000/svg" xmlns:xlink="http://www.w3.org/1999/xlink" width="500" zoomAndPan="magnify" viewBox="0 0 375 374.999991" height="500" preserveAspectRatio="xMidYMid meet" version="1.0"><defs><g/><clipPath id="56414e3c7e"><path d="M 71.726562 150.363281 L 120.066406 150.363281 L 120.066406 246.335938 L 71.726562 246.335938 Z M 71.726562 150.363281 " clip-rule="nonzero"/></clipPath><clipPath id="a41d8d2b15"><path d="M 95 96.34375 L 115 96.34375 L 115 116 L 95 116 Z M 95 96.34375 " clip-rule="nonzero"/></clipPath><clipPath id="ebb8e4e6c3"><path d="M 108.480469 120.671875 L 120.066406 120.671875 L 120.066406 132.445312 L 108.480469 132.445312 Z M 108.480469 120.671875 " clip-rule="nonzero"/></clipPath></defs><g clip-path="url(#56414e3c7e)"><path fill="#515389" d="M 116.445312 209.054688 C 118.105469 198.371094 115.214844 187.679688 113.78125 182.820312 C 112.34375 177.964844 108.644531 168.222656 108.644531 168.222656 C 104.726562 166.890625 100.5 168.542969 100.5 168.542969 C 100.5 168.542969 102.570312 176.832031 102.023438 178.445312 C 101.476562 180.058594 95.285156 174.097656 95.285156 174.097656 C 89.507812 192.96875 105.15625 203.679688 105.15625 203.679688 C 105.15625 203.679688 96.457031 199.3125 93.300781 189.367188 C 91.53125 183.796875 92.679688 173.878906 94.941406 171.28125 C 97.46875 168.378906 99.152344 166.542969 106.941406 166.613281 C 112.4375 166.664062 116.035156 166.257812 117.808594 165.394531 C 118.308594 165.152344 118.261719 164.429688 117.734375 164.265625 C 114.46875 163.234375 106.097656 160.617188 104.433594 160.363281 C 102.945312 160.132812 97.039062 161.246094 93.8125 161.890625 C 92.433594 162.167969 91.1875 162.882812 90.25 163.925781 L 83.449219 174.839844 L 89.191406 162.589844 C 90.0625 161.34375 91.355469 160.457031 92.828125 160.082031 C 95.355469 159.441406 97.03125 158.660156 99.625 158.203125 C 99.472656 158.808594 99.398438 159.511719 99.382812 160.257812 C 101.53125 159.910156 103.484375 159.667969 104.253906 159.785156 C 104.261719 159.789062 104.269531 159.789062 104.277344 159.789062 C 103.832031 159.058594 103.382812 158.398438 102.949219 157.851562 C 104.308594 157.789062 105.902344 157.804688 107.835938 157.917969 C 114.742188 158.324219 118.125 158.007812 119.730469 156.925781 C 120.265625 156.566406 120.121094 155.734375 119.503906 155.539062 C 114.960938 154.097656 106.964844 150.035156 104.949219 150.507812 C 102.714844 151.035156 88.929688 152.15625 85.5625 152.34375 C 82.140625 152.539062 77.355469 169.296875 73.535156 177.902344 C 69.714844 186.503906 71.652344 190.074219 82.136719 202.550781 C 102.105469 226.300781 90.675781 246.335938 90.675781 246.335938 C 90.675781 246.335938 113.410156 228.597656 116.445312 209.054688 " fill-opacity="1" fill-rule="nonzero"/></g><path fill="#515389" d="M 84.894531 151.566406 L 91.183594 150.914062 C 91.183594 150.914062 93.203125 146.101562 102.199219 143.371094 C 107.289062 141.824219 111.851562 140.554688 114.101562 138.675781 C 114.886719 138.019531 114.480469 136.742188 113.460938 136.652344 C 109.496094 136.292969 102.027344 135.761719 99.523438 136.578125 C 96.050781 137.714844 86.78125 142.667969 83.457031 145.269531 C 80.132812 147.867188 77.089844 167.023438 77.089844 167.023438 L 81.820312 154.09375 C 82.308594 152.753906 83.484375 151.789062 84.894531 151.566406 " fill-opacity="1" fill-rule="nonzero"/><path fill="#515389" d="M 93.992188 119.917969 C 91.675781 121.058594 87.84375 131.585938 86.394531 134.050781 C 84.941406 136.515625 83.046875 143.910156 83.046875 143.910156 L 91.964844 138.769531 C 96.597656 129.285156 96.308594 118.773438 93.992188 119.917969 " fill-opacity="1" fill-rule="nonzero"/><g clip-path="url(#a41d8d2b15)"><path fill="#515389" d="M 109.671875 96.34375 L 108.546875 100.894531 C 107.941406 103.34375 108.757812 105.929688 110.664062 107.585938 L 114.199219 110.664062 L 109.648438 109.539062 C 107.195312 108.933594 104.613281 109.75 102.957031 111.652344 L 99.878906 115.191406 L 101 110.640625 C 101.605469 108.1875 100.789062 105.605469 98.886719 103.949219 L 95.351562 100.871094 L 99.902344 101.992188 C 102.351562 102.597656 104.933594 101.78125 106.59375 99.878906 L 109.671875 96.34375 " fill-opacity="1" fill-rule="nonzero"/></g><g clip-path="url(#ebb8e4e6c3)"><path fill="#515389" d="M 117.28125 120.742188 L 116.59375 123.539062 C 116.21875 125.046875 116.722656 126.632812 117.890625 127.652344 L 120.066406 129.542969 L 117.269531 128.855469 C 115.761719 128.480469 114.175781 128.984375 113.15625 130.152344 L 111.265625 132.328125 L 111.953125 129.527344 C 112.328125 128.023438 111.824219 126.4375 110.65625 125.417969 L 108.480469 123.527344 L 111.277344 124.214844 C 112.785156 124.589844 114.371094 124.085938 115.390625 122.917969 L 117.28125 120.742188 " fill-opacity="1" fill-rule="nonzero"/></g><path fill="#515389" d="M 79.671875 120.519531 L 79.128906 122.71875 C 78.835938 123.902344 79.230469 125.148438 80.152344 125.949219 L 81.859375 127.433594 L 79.660156 126.890625 C 78.476562 126.597656 77.230469 126.992188 76.429688 127.914062 L 74.945312 129.621094 L 75.488281 127.421875 C 75.78125 126.238281 75.386719 124.992188 74.464844 124.191406 L 72.757812 122.707031 L 74.957031 123.25 C 76.140625 123.542969 77.386719 123.148438 78.1875 122.226562 L 79.671875 120.519531 " fill-opacity="1" fill-rule="nonzero"/><path fill="#515389" d="M 82.949219 103.097656 L 82.523438 104.820312 C 82.292969 105.75 82.601562 106.730469 83.324219 107.359375 L 84.664062 108.527344 L 82.941406 108.097656 C 82.011719 107.871094 81.03125 108.179688 80.402344 108.902344 L 79.234375 110.242188 L 79.660156 108.515625 C 79.890625 107.585938 79.582031 106.609375 78.859375 105.980469 L 77.519531 104.8125 L 79.246094 105.238281 C 80.175781 105.46875 81.152344 105.160156 81.78125 104.4375 L 82.949219 103.097656 " fill-opacity="1" fill-rule="nonzero"/><g fill="#515389" fill-opacity="1"><g transform="translate(130.089841, 200.249987)"><g><path d="M 25.78125 -23.796875 L 24.109375 -23.796875 C 24.078125 -24.523438 24.019531 -25.132812 23.9375 -25.625 C 23.863281 -26.125 23.695312 -26.515625 23.4375 -26.796875 C 23.207031 -27.109375 22.859375 -27.320312 22.390625 -27.4375 C 21.921875 -27.5625 21.28125 -27.625 20.46875 -27.625 L 15.15625 -27.625 L 15.15625 -5.625 C 15.15625 -4.769531 15.203125 -4.085938 15.296875 -3.578125 C 15.390625 -3.066406 15.578125 -2.671875 15.859375 -2.390625 C 16.117188 -2.097656 16.492188 -1.898438 16.984375 -1.796875 C 17.484375 -1.691406 18.125 -1.640625 18.90625 -1.640625 L 18.90625 -0.234375 C 18.257812 -0.234375 17.441406 -0.238281 16.453125 -0.25 C 15.460938 -0.269531 14.429688 -0.28125 13.359375 -0.28125 C 12.316406 -0.28125 11.300781 -0.269531 10.3125 -0.25 C 9.320312 -0.238281 8.515625 -0.222656 7.890625 -0.203125 L 7.890625 -1.640625 C 8.648438 -1.640625 9.269531 -1.691406 9.75 -1.796875 C 10.226562 -1.898438 10.613281 -2.097656 10.90625 -2.390625 C 11.164062 -2.671875 11.347656 -3.066406 11.453125 -3.578125 C 11.554688 -4.085938 11.609375 -4.769531 11.609375 -5.625 L 11.609375 -27.625 L 7.109375 -27.625 C 6.253906 -27.625 5.550781 -27.570312 5 -27.46875 C 4.457031 -27.363281 4.015625 -27.164062 3.671875 -26.875 C 3.335938 -26.613281 3.066406 -26.226562 2.859375 -25.71875 C 2.648438 -25.21875 2.453125 -24.578125 2.265625 -23.796875 L 0.546875 -23.796875 L 1.09375 -29.609375 C 2.738281 -29.535156 4.660156 -29.484375 6.859375 -29.453125 C 9.054688 -29.429688 11.300781 -29.421875 13.59375 -29.421875 C 15.882812 -29.421875 18.128906 -29.429688 20.328125 -29.453125 C 22.535156 -29.484375 24.472656 -29.535156 26.140625 -29.609375 Z M 25.78125 -23.796875 "/></g></g></g><g fill="#515389" fill-opacity="1"><g transform="translate(156.845038, 200.249987)"><g><path d="M 12.234375 -9.453125 C 9.628906 -8.804688 7.753906 -8.125 6.609375 -7.40625 C 5.460938 -6.6875 4.890625 -5.78125 4.890625 -4.6875 C 4.890625 -3.570312 5.132812 -2.832031 5.625 -2.46875 C 6.125 -2.101562 6.84375 -1.921875 7.78125 -1.921875 C 8.582031 -1.921875 9.394531 -2.171875 10.21875 -2.671875 C 11.039062 -3.179688 11.710938 -3.722656 12.234375 -4.296875 Z M 19.03125 -1.921875 C 18.457031 -1.367188 17.820312 -0.835938 17.125 -0.328125 C 16.4375 0.179688 15.675781 0.4375 14.84375 0.4375 C 14.0625 0.4375 13.441406 0.171875 12.984375 -0.359375 C 12.535156 -0.898438 12.296875 -1.484375 12.265625 -2.109375 C 11.722656 -1.535156 10.894531 -0.96875 9.78125 -0.40625 C 8.675781 0.15625 7.421875 0.4375 6.015625 0.4375 C 4.691406 0.4375 3.597656 0.03125 2.734375 -0.78125 C 1.878906 -1.59375 1.476562 -2.609375 1.53125 -3.828125 C 1.550781 -4.847656 1.847656 -5.707031 2.421875 -6.40625 C 2.992188 -7.113281 3.765625 -7.738281 4.734375 -8.28125 C 5.691406 -8.832031 6.816406 -9.316406 8.109375 -9.734375 C 9.398438 -10.148438 10.773438 -10.578125 12.234375 -11.015625 L 12.234375 -13.5625 C 12.234375 -14.65625 11.976562 -15.523438 11.46875 -16.171875 C 10.957031 -16.828125 10.066406 -17.15625 8.796875 -17.15625 C 7.859375 -17.15625 7.050781 -16.878906 6.375 -16.328125 C 5.695312 -15.785156 5.34375 -15.082031 5.3125 -14.21875 C 5.3125 -13.570312 5.148438 -13.078125 4.828125 -12.734375 C 4.503906 -12.398438 4.066406 -12.234375 3.515625 -12.234375 C 2.972656 -12.234375 2.597656 -12.378906 2.390625 -12.671875 C 2.179688 -12.972656 2.078125 -13.359375 2.078125 -13.828125 C 2.078125 -14.585938 2.398438 -15.285156 3.046875 -15.921875 C 3.703125 -16.554688 4.835938 -17.304688 6.453125 -18.171875 C 7.304688 -18.640625 8.015625 -18.984375 8.578125 -19.203125 C 9.140625 -19.421875 9.785156 -19.53125 10.515625 -19.53125 C 11.921875 -19.53125 13.117188 -19.132812 14.109375 -18.34375 C 15.097656 -17.550781 15.59375 -16.410156 15.59375 -14.921875 L 15.59375 -4.375 C 15.59375 -3.019531 15.816406 -2.273438 16.265625 -2.140625 C 16.722656 -2.015625 17.550781 -2.367188 18.75 -3.203125 Z M 19.03125 -1.921875 "/></g></g></g><g fill="#515389" fill-opacity="1"><g transform="translate(176.96026, 200.249987)"><g><path d="M 2.96875 -6.21875 C 3.050781 -5.59375 3.195312 -4.976562 3.40625 -4.375 C 3.613281 -3.78125 3.882812 -3.25 4.21875 -2.78125 C 4.582031 -2.3125 5.019531 -1.929688 5.53125 -1.640625 C 6.039062 -1.359375 6.660156 -1.21875 7.390625 -1.21875 C 8.640625 -1.21875 9.5 -1.515625 9.96875 -2.109375 C 10.4375 -2.710938 10.671875 -3.363281 10.671875 -4.0625 C 10.671875 -4.613281 10.566406 -5.085938 10.359375 -5.484375 C 10.148438 -5.890625 9.875 -6.25 9.53125 -6.5625 C 9.164062 -6.875 8.75 -7.164062 8.28125 -7.4375 C 7.8125 -7.71875 7.304688 -8 6.765625 -8.28125 C 5.273438 -9.039062 4.066406 -9.867188 3.140625 -10.765625 C 2.222656 -11.660156 1.765625 -12.785156 1.765625 -14.140625 C 1.765625 -14.816406 1.90625 -15.476562 2.1875 -16.125 C 2.476562 -16.78125 2.894531 -17.367188 3.4375 -17.890625 C 3.988281 -18.390625 4.660156 -18.796875 5.453125 -19.109375 C 6.242188 -19.421875 7.148438 -19.578125 8.171875 -19.578125 C 8.953125 -19.578125 9.710938 -19.484375 10.453125 -19.296875 C 11.191406 -19.117188 12.019531 -18.78125 12.9375 -18.28125 L 13.203125 -13.75 L 11.71875 -13.75 C 11.539062 -15.15625 11.113281 -16.191406 10.4375 -16.859375 C 9.757812 -17.523438 8.859375 -17.859375 7.734375 -17.859375 C 6.878906 -17.859375 6.140625 -17.628906 5.515625 -17.171875 C 4.890625 -16.710938 4.578125 -16.09375 4.578125 -15.3125 C 4.578125 -14.71875 4.707031 -14.210938 4.96875 -13.796875 C 5.226562 -13.378906 5.578125 -13 6.015625 -12.65625 C 6.460938 -12.320312 6.972656 -12.007812 7.546875 -11.71875 C 8.117188 -11.4375 8.71875 -11.148438 9.34375 -10.859375 C 9.882812 -10.578125 10.4375 -10.289062 11 -10 C 11.5625 -9.71875 12.0625 -9.367188 12.5 -8.953125 C 12.945312 -8.554688 13.3125 -8.070312 13.59375 -7.5 C 13.882812 -6.925781 14.03125 -6.210938 14.03125 -5.359375 C 14.03125 -4.628906 13.890625 -3.914062 13.609375 -3.21875 C 13.335938 -2.53125 12.914062 -1.914062 12.34375 -1.375 C 11.800781 -0.820312 11.085938 -0.378906 10.203125 -0.046875 C 9.316406 0.273438 8.273438 0.4375 7.078125 0.4375 C 6.191406 0.4375 5.304688 0.3125 4.421875 0.0625 C 3.535156 -0.1875 2.726562 -0.546875 2 -1.015625 L 1.453125 -6.21875 Z M 2.96875 -6.21875 "/></g></g></g><g fill="#515389" fill-opacity="1"><g transform="translate(192.38844, 200.249987)"><g><path d="M 12.390625 -15.046875 C 13.398438 -15.953125 13.898438 -16.582031 13.890625 -16.9375 C 13.878906 -17.289062 13.285156 -17.46875 12.109375 -17.46875 L 12.109375 -19.03125 C 12.472656 -18.976562 13.046875 -18.941406 13.828125 -18.921875 C 14.609375 -18.910156 15.429688 -18.90625 16.296875 -18.90625 C 17.148438 -18.90625 17.960938 -18.910156 18.734375 -18.921875 C 19.503906 -18.941406 20.054688 -18.976562 20.390625 -19.03125 L 20.390625 -17.46875 C 19.796875 -17.46875 19.269531 -17.40625 18.8125 -17.28125 C 18.351562 -17.164062 17.929688 -17.019531 17.546875 -16.84375 C 17.148438 -16.632812 16.765625 -16.398438 16.390625 -16.140625 C 16.015625 -15.878906 15.628906 -15.59375 15.234375 -15.28125 L 10.125 -10.9375 L 16.71875 -3.40625 C 17.476562 -2.539062 18.257812 -2.015625 19.0625 -1.828125 C 19.875 -1.648438 20.695312 -1.550781 21.53125 -1.53125 L 21.53125 -0.203125 C 21.21875 -0.203125 20.78125 -0.207031 20.21875 -0.21875 C 19.65625 -0.226562 19.078125 -0.234375 18.484375 -0.234375 C 17.878906 -0.234375 17.296875 -0.226562 16.734375 -0.21875 C 16.179688 -0.207031 15.757812 -0.203125 15.46875 -0.203125 C 15.257812 -0.429688 15.023438 -0.707031 14.765625 -1.03125 C 14.503906 -1.363281 14.257812 -1.671875 14.03125 -1.953125 L 7.9375 -9.109375 L 6.84375 -8.171875 L 6.84375 -4.421875 C 6.84375 -3.796875 6.867188 -3.289062 6.921875 -2.90625 C 6.972656 -2.53125 7.101562 -2.253906 7.3125 -2.078125 C 7.488281 -1.890625 7.765625 -1.769531 8.140625 -1.71875 C 8.523438 -1.664062 9.039062 -1.640625 9.6875 -1.640625 L 9.6875 -0.203125 C 9.269531 -0.222656 8.644531 -0.238281 7.8125 -0.25 C 6.976562 -0.269531 6.09375 -0.28125 5.15625 -0.28125 C 4.25 -0.28125 3.378906 -0.269531 2.546875 -0.25 C 1.710938 -0.238281 1.113281 -0.222656 0.75 -0.203125 L 0.75 -1.640625 C 1.34375 -1.640625 1.820312 -1.664062 2.1875 -1.71875 C 2.550781 -1.769531 2.828125 -1.890625 3.015625 -2.078125 C 3.191406 -2.253906 3.3125 -2.53125 3.375 -2.90625 C 3.445312 -3.289062 3.484375 -3.796875 3.484375 -4.421875 L 3.484375 -25.984375 C 3.484375 -26.628906 3.457031 -27.140625 3.40625 -27.515625 C 3.351562 -27.898438 3.25 -28.179688 3.09375 -28.359375 C 2.90625 -28.546875 2.640625 -28.65625 2.296875 -28.6875 C 1.960938 -28.726562 1.507812 -28.75 0.9375 -28.75 L 0.9375 -29.921875 C 1.800781 -30.078125 2.640625 -30.332031 3.453125 -30.6875 C 4.273438 -31.039062 4.988281 -31.488281 5.59375 -32.03125 L 7.078125 -32.03125 C 6.992188 -31.332031 6.929688 -30.546875 6.890625 -29.671875 C 6.859375 -28.796875 6.84375 -28.0625 6.84375 -27.46875 L 6.84375 -10.390625 Z M 12.390625 -15.046875 "/></g></g></g><g fill="#515389" fill-opacity="1"><g transform="translate(214.847182, 200.249987)"><g><path d="M 20.59375 0.046875 L 19.21875 0.046875 L 8.5625 -23.046875 L 8.25 -5.546875 C 8.25 -4.117188 8.441406 -3.117188 8.828125 -2.546875 C 9.222656 -1.972656 10.082031 -1.660156 11.40625 -1.609375 L 11.40625 -0.234375 C 10.78125 -0.234375 10.003906 -0.238281 9.078125 -0.25 C 8.160156 -0.269531 7.207031 -0.28125 6.21875 -0.28125 C 5.226562 -0.28125 4.269531 -0.269531 3.34375 -0.25 C 2.414062 -0.238281 1.640625 -0.222656 1.015625 -0.203125 L 1.015625 -1.640625 C 1.929688 -1.671875 2.6875 -1.726562 3.28125 -1.8125 C 3.882812 -1.90625 4.367188 -2.097656 4.734375 -2.390625 C 5.117188 -2.648438 5.394531 -3.039062 5.5625 -3.5625 C 5.738281 -4.082031 5.851562 -4.785156 5.90625 -5.671875 L 6.328125 -24.765625 C 6.328125 -26.015625 6.050781 -26.882812 5.5 -27.375 C 4.957031 -27.875 4.023438 -28.125 2.703125 -28.125 L 2.703125 -29.609375 C 3.117188 -29.554688 3.628906 -29.523438 4.234375 -29.515625 C 4.847656 -29.503906 5.46875 -29.5 6.09375 -29.5 C 6.71875 -29.5 7.300781 -29.503906 7.84375 -29.515625 C 8.394531 -29.523438 8.816406 -29.554688 9.109375 -29.609375 L 20.515625 -4.96875 L 31.609375 -29.578125 C 31.921875 -29.523438 32.394531 -29.5 33.03125 -29.5 C 33.664062 -29.5 34.335938 -29.5 35.046875 -29.5 C 35.742188 -29.5 36.40625 -29.507812 37.03125 -29.53125 C 37.65625 -29.5625 38.113281 -29.601562 38.40625 -29.65625 L 38.40625 -28.125 C 36.945312 -28.125 35.972656 -27.863281 35.484375 -27.34375 C 35.003906 -26.820312 34.765625 -25.976562 34.765625 -24.8125 L 35.203125 -5.671875 C 35.222656 -4.835938 35.289062 -4.160156 35.40625 -3.640625 C 35.53125 -3.117188 35.757812 -2.710938 36.09375 -2.421875 C 36.40625 -2.109375 36.851562 -1.898438 37.4375 -1.796875 C 38.03125 -1.691406 38.820312 -1.640625 39.8125 -1.640625 L 39.8125 -0.234375 C 39.1875 -0.234375 38.304688 -0.234375 37.171875 -0.234375 C 36.035156 -0.234375 34.84375 -0.234375 33.59375 -0.234375 C 32.34375 -0.234375 31.144531 -0.234375 30 -0.234375 C 28.851562 -0.234375 27.992188 -0.234375 27.421875 -0.234375 L 27.421875 -1.640625 C 28.304688 -1.640625 29.03125 -1.691406 29.59375 -1.796875 C 30.15625 -1.898438 30.59375 -2.097656 30.90625 -2.390625 C 31.1875 -2.671875 31.382812 -3.070312 31.5 -3.59375 C 31.625 -4.113281 31.6875 -4.804688 31.6875 -5.671875 L 31.453125 -23.796875 Z M 20.59375 0.046875 "/></g></g></g><g fill="#515389" fill-opacity="1"><g transform="translate(255.624447, 200.249987)"><g><path d="M 12.234375 -9.453125 C 9.628906 -8.804688 7.753906 -8.125 6.609375 -7.40625 C 5.460938 -6.6875 4.890625 -5.78125 4.890625 -4.6875 C 4.890625 -3.570312 5.132812 -2.832031 5.625 -2.46875 C 6.125 -2.101562 6.84375 -1.921875 7.78125 -1.921875 C 8.582031 -1.921875 9.394531 -2.171875 10.21875 -2.671875 C 11.039062 -3.179688 11.710938 -3.722656 12.234375 -4.296875 Z M 19.03125 -1.921875 C 18.457031 -1.367188 17.820312 -0.835938 17.125 -0.328125 C 16.4375 0.179688 15.675781 0.4375 14.84375 0.4375 C 14.0625 0.4375 13.441406 0.171875 12.984375 -0.359375 C 12.535156 -0.898438 12.296875 -1.484375 12.265625 -2.109375 C 11.722656 -1.535156 10.894531 -0.96875 9.78125 -0.40625 C 8.675781 0.15625 7.421875 0.4375 6.015625 0.4375 C 4.691406 0.4375 3.597656 0.03125 2.734375 -0.78125 C 1.878906 -1.59375 1.476562 -2.609375 1.53125 -3.828125 C 1.550781 -4.847656 1.847656 -5.707031 2.421875 -6.40625 C 2.992188 -7.113281 3.765625 -7.738281 4.734375 -8.28125 C 5.691406 -8.832031 6.816406 -9.316406 8.109375 -9.734375 C 9.398438 -10.148438 10.773438 -10.578125 12.234375 -11.015625 L 12.234375 -13.5625 C 12.234375 -14.65625 11.976562 -15.523438 11.46875 -16.171875 C 10.957031 -16.828125 10.066406 -17.15625 8.796875 -17.15625 C 7.859375 -17.15625 7.050781 -16.878906 6.375 -16.328125 C 5.695312 -15.785156 5.34375 -15.082031 5.3125 -14.21875 C 5.3125 -13.570312 5.148438 -13.078125 4.828125 -12.734375 C 4.503906 -12.398438 4.066406 -12.234375 3.515625 -12.234375 C 2.972656 -12.234375 2.597656 -12.378906 2.390625 -12.671875 C 2.179688 -12.972656 2.078125 -13.359375 2.078125 -13.828125 C 2.078125 -14.585938 2.398438 -15.285156 3.046875 -15.921875 C 3.703125 -16.554688 4.835938 -17.304688 6.453125 -18.171875 C 7.304688 -18.640625 8.015625 -18.984375 8.578125 -19.203125 C 9.140625 -19.421875 9.785156 -19.53125 10.515625 -19.53125 C 11.921875 -19.53125 13.117188 -19.132812 14.109375 -18.34375 C 15.097656 -17.550781 15.59375 -16.410156 15.59375 -14.921875 L 15.59375 -4.375 C 15.59375 -3.019531 15.816406 -2.273438 16.265625 -2.140625 C 16.722656 -2.015625 17.550781 -2.367188 18.75 -3.203125 Z M 19.03125 -1.921875 "/></g></g></g><g fill="#515389" fill-opacity="1"><g transform="translate(275.739668, 200.249987)"><g><path d="M 2.96875 -6.21875 C 3.050781 -5.59375 3.195312 -4.976562 3.40625 -4.375 C 3.613281 -3.78125 3.882812 -3.25 4.21875 -2.78125 C 4.582031 -2.3125 5.019531 -1.929688 5.53125 -1.640625 C 6.039062 -1.359375 6.660156 -1.21875 7.390625 -1.21875 C 8.640625 -1.21875 9.5 -1.515625 9.96875 -2.109375 C 10.4375 -2.710938 10.671875 -3.363281 10.671875 -4.0625 C 10.671875 -4.613281 10.566406 -5.085938 10.359375 -5.484375 C 10.148438 -5.890625 9.875 -6.25 9.53125 -6.5625 C 9.164062 -6.875 8.75 -7.164062 8.28125 -7.4375 C 7.8125 -7.71875 7.304688 -8 6.765625 -8.28125 C 5.273438 -9.039062 4.066406 -9.867188 3.140625 -10.765625 C 2.222656 -11.660156 1.765625 -12.785156 1.765625 -14.140625 C 1.765625 -14.816406 1.90625 -15.476562 2.1875 -16.125 C 2.476562 -16.78125 2.894531 -17.367188 3.4375 -17.890625 C 3.988281 -18.390625 4.660156 -18.796875 5.453125 -19.109375 C 6.242188 -19.421875 7.148438 -19.578125 8.171875 -19.578125 C 8.953125 -19.578125 9.710938 -19.484375 10.453125 -19.296875 C 11.191406 -19.117188 12.019531 -18.78125 12.9375 -18.28125 L 13.203125 -13.75 L 11.71875 -13.75 C 11.539062 -15.15625 11.113281 -16.191406 10.4375 -16.859375 C 9.757812 -17.523438 8.859375 -17.859375 7.734375 -17.859375 C 6.878906 -17.859375 6.140625 -17.628906 5.515625 -17.171875 C 4.890625 -16.710938 4.578125 -16.09375 4.578125 -15.3125 C 4.578125 -14.71875 4.707031 -14.210938 4.96875 -13.796875 C 5.226562 -13.378906 5.578125 -13 6.015625 -12.65625 C 6.460938 -12.320312 6.972656 -12.007812 7.546875 -11.71875 C 8.117188 -11.4375 8.71875 -11.148438 9.34375 -10.859375 C 9.882812 -10.578125 10.4375 -10.289062 11 -10 C 11.5625 -9.71875 12.0625 -9.367188 12.5 -8.953125 C 12.945312 -8.554688 13.3125 -8.070312 13.59375 -7.5 C 13.882812 -6.925781 14.03125 -6.210938 14.03125 -5.359375 C 14.03125 -4.628906 13.890625 -3.914062 13.609375 -3.21875 C 13.335938 -2.53125 12.914062 -1.914062 12.34375 -1.375 C 11.800781 -0.820312 11.085938 -0.378906 10.203125 -0.046875 C 9.316406 0.273438 8.273438 0.4375 7.078125 0.4375 C 6.191406 0.4375 5.304688 0.3125 4.421875 0.0625 C 3.535156 -0.1875 2.726562 -0.546875 2 -1.015625 L 1.453125 -6.21875 Z M 2.96875 -6.21875 "/></g></g></g><g fill="#515389" fill-opacity="1"><g transform="translate(291.167848, 200.249987)"><g><path d="M 6.53125 -5.515625 C 6.53125 -4.054688 6.710938 -3.082031 7.078125 -2.59375 C 7.441406 -2.113281 7.910156 -1.875 8.484375 -1.875 C 8.847656 -1.875 9.421875 -2.015625 10.203125 -2.296875 C 10.984375 -2.585938 11.609375 -2.957031 12.078125 -3.40625 L 12.859375 -2.265625 C 12.078125 -1.460938 11.207031 -0.8125 10.25 -0.3125 C 9.300781 0.1875 8.304688 0.4375 7.265625 0.4375 C 5.992188 0.4375 4.992188 0.09375 4.265625 -0.59375 C 3.535156 -1.289062 3.171875 -2.304688 3.171875 -3.640625 L 3.171875 -16.328125 L 0.46875 -16.328125 L 0.46875 -17.390625 C 1.800781 -17.722656 2.785156 -18.359375 3.421875 -19.296875 C 4.054688 -20.234375 4.519531 -21.535156 4.8125 -23.203125 L 6.53125 -23.203125 L 6.53125 -18.484375 L 12.734375 -18.484375 L 12.734375 -16.328125 L 6.53125 -16.328125 Z M 6.53125 -5.515625 "/></g></g></g><g fill="#515389" fill-opacity="1"><g transform="translate(304.291566, 200.249987)"><g><path d="M 4.609375 -11.640625 C 4.585938 -11.535156 4.566406 -11.234375 4.546875 -10.734375 C 4.535156 -10.242188 4.554688 -9.648438 4.609375 -8.953125 C 4.710938 -7.023438 5.257812 -5.425781 6.25 -4.15625 C 7.238281 -2.894531 8.566406 -2.265625 10.234375 -2.265625 C 11.410156 -2.265625 12.445312 -2.523438 13.34375 -3.046875 C 14.238281 -3.566406 15.039062 -4.257812 15.75 -5.125 L 17 -4.375 C 16.1875 -2.96875 15.140625 -1.8125 13.859375 -0.90625 C 12.585938 -0.0078125 11.132812 0.4375 9.5 0.4375 C 8.320312 0.4375 7.234375 0.195312 6.234375 -0.28125 C 5.234375 -0.769531 4.367188 -1.429688 3.640625 -2.265625 C 2.878906 -3.128906 2.296875 -4.125 1.890625 -5.25 C 1.492188 -6.382812 1.296875 -7.617188 1.296875 -8.953125 C 1.296875 -10.617188 1.503906 -12.109375 1.921875 -13.421875 C 2.335938 -14.734375 2.921875 -15.847656 3.671875 -16.765625 C 4.398438 -17.671875 5.28125 -18.363281 6.3125 -18.84375 C 7.34375 -19.332031 8.457031 -19.578125 9.65625 -19.578125 C 10.457031 -19.578125 11.273438 -19.4375 12.109375 -19.15625 C 12.941406 -18.882812 13.6875 -18.476562 14.34375 -17.9375 C 14.988281 -17.382812 15.519531 -16.6875 15.9375 -15.84375 C 16.351562 -15 16.578125 -14.003906 16.609375 -12.859375 C 16.609375 -12.566406 16.597656 -12.34375 16.578125 -12.1875 C 16.566406 -12.03125 16.523438 -11.914062 16.453125 -11.84375 C 16.398438 -11.757812 16.296875 -11.703125 16.140625 -11.671875 C 15.984375 -11.648438 15.773438 -11.640625 15.515625 -11.640625 Z M 12.3125 -13.359375 C 12.625 -13.359375 12.835938 -13.40625 12.953125 -13.5 C 13.066406 -13.59375 13.125 -13.804688 13.125 -14.140625 C 13.125 -14.972656 12.796875 -15.800781 12.140625 -16.625 C 11.492188 -17.445312 10.613281 -17.859375 9.5 -17.859375 C 8.164062 -17.859375 7.109375 -17.441406 6.328125 -16.609375 C 5.546875 -15.773438 5.050781 -14.691406 4.84375 -13.359375 Z M 12.3125 -13.359375 "/></g></g></g><g fill="#515389" fill-opacity="1"><g transform="translate(322.063266, 200.249987)"><g><path d="M 7.15625 -15.78125 C 7.800781 -16.800781 8.617188 -17.6875 9.609375 -18.4375 C 10.597656 -19.195312 11.523438 -19.578125 12.390625 -19.578125 C 12.929688 -19.578125 13.492188 -19.394531 14.078125 -19.03125 C 14.671875 -18.664062 14.96875 -18.050781 14.96875 -17.1875 C 14.96875 -16.5625 14.738281 -16.035156 14.28125 -15.609375 C 13.820312 -15.179688 13.332031 -14.96875 12.8125 -14.96875 C 12.425781 -14.96875 12.109375 -15.019531 11.859375 -15.125 C 11.609375 -15.226562 11.394531 -15.34375 11.21875 -15.46875 C 11.03125 -15.601562 10.859375 -15.726562 10.703125 -15.84375 C 10.546875 -15.957031 10.351562 -16.015625 10.125 -16.015625 C 9.832031 -16.015625 9.515625 -15.921875 9.171875 -15.734375 C 8.835938 -15.554688 8.515625 -15.3125 8.203125 -15 C 7.890625 -14.71875 7.632812 -14.367188 7.4375 -13.953125 C 7.25 -13.535156 7.15625 -13.09375 7.15625 -12.625 L 7.15625 -4.421875 C 7.15625 -3.816406 7.191406 -3.332031 7.265625 -2.96875 C 7.347656 -2.601562 7.53125 -2.316406 7.8125 -2.109375 C 8.125 -1.929688 8.5625 -1.804688 9.125 -1.734375 C 9.6875 -1.671875 10.460938 -1.640625 11.453125 -1.640625 L 11.453125 -0.203125 C 10.878906 -0.222656 10.109375 -0.238281 9.140625 -0.25 C 8.179688 -0.269531 7.179688 -0.28125 6.140625 -0.28125 C 5.066406 -0.28125 4.035156 -0.269531 3.046875 -0.25 C 2.054688 -0.238281 1.273438 -0.222656 0.703125 -0.203125 L 0.703125 -1.640625 C 1.410156 -1.640625 1.960938 -1.664062 2.359375 -1.71875 C 2.765625 -1.769531 3.070312 -1.890625 3.28125 -2.078125 C 3.488281 -2.253906 3.625 -2.53125 3.6875 -2.90625 C 3.757812 -3.289062 3.796875 -3.796875 3.796875 -4.421875 L 3.796875 -13.484375 C 3.796875 -14.753906 3.675781 -15.566406 3.4375 -15.921875 C 3.207031 -16.273438 2.570312 -16.453125 1.53125 -16.453125 L 1.53125 -17.65625 C 2.363281 -17.789062 3.144531 -18 3.875 -18.28125 C 4.601562 -18.570312 5.28125 -18.988281 5.90625 -19.53125 L 7.34375 -19.53125 C 7.269531 -18.90625 7.21875 -18.265625 7.1875 -17.609375 C 7.164062 -16.960938 7.15625 -16.351562 7.15625 -15.78125 Z M 7.15625 -15.78125 "/></g></g></g></svg>